<svg xmlns="http://www.w3.org/2000/svg" viewBox="0 0 100 100" width="480" height="480" role="img" aria-label="">
  <defs><linearGradient id="g_catdogs" x1="0" y1="0" x2="0" y2="1">
    <stop offset="0" stop-color="#f8f0e3"/><stop offset="1" stop-color="#efe0c9"/>
  </linearGradient></defs>
  <rect width="100" height="100" fill="url(#g_catdogs)"/>
  <circle cx="50" cy="50" r="27" fill="#ffffff" opacity=".55"/>
  <g transform="translate(28,28) scale(1.83)" fill="#c88a3e" stroke="none"><ellipse cx="6.5" cy="10" rx="2.1" ry="2.7"/><ellipse cx="10.4" cy="7.2" rx="2.1" ry="2.8"/><ellipse cx="14.6" cy="7.2" rx="2.1" ry="2.8"/><ellipse cx="18" cy="10" rx="2.1" ry="2.7"/><path d="M12.4 12.2c3 0 5.4 2.3 5.4 4.7 0 2-1.7 3-3.7 2.5a6.7 6.7 0 0 0-3.4 0c-2 .5-3.7-.5-3.7-2.5 0-2.4 2.4-4.7 5.4-4.7z"/></g>
</svg>
